<svg width="18" height="17" viewBox="0 0 18 17" fill="none" xmlns="http://www.w3.org/2000/svg">
<path d="M3.75249 15.0771C3.75249 14.0561 2.89589 13.2 1.87628 13.2C0.856661 13.2 0 14.0561 0 15.0771C0 16.098 0.856661 16.9542 1.87628 16.9542C2.89589 16.9542 3.75249 16.098 3.75249 15.0771Z" fill="url(#paint0_linear_50_189)"/>
<path d="M3.75249 8.4771C3.75249 7.45615 2.89589 6.60001 1.87628 6.60001C0.856661 6.60001 0 7.45615 0 8.4771C7.42351e-07 9.49805 0.856661 10.3541 1.87628 10.3541C2.89589 10.3541 3.75249 9.49805 3.75249 8.4771Z" fill="url(#paint1_linear_50_189)"/>
<path d="M3.75249 1.87703C3.75249 0.856078 2.89589 2.28278e-07 1.87628 0C0.856661 2.28278e-07 0 0.856078 0 1.87703C0 2.89798 0.856661 3.75412 1.87628 3.75412C2.89589 3.75412 3.75249 2.89798 3.75249 1.87703Z" fill="url(#paint2_linear_50_189)"/>
<path d="M6.4583 0.456421C6.27992 0.456422 6.10329 0.49317 5.93849 0.564567C5.77369 0.635964 5.62395 0.740611 5.49782 0.872534C5.37169 1.00446 5.27164 1.16107 5.20338 1.33343C5.13513 1.5058 5.1 1.69053 5.10001 1.8771C5.10001 2.25386 5.24311 2.6152 5.49784 2.88161C5.75257 3.14803 6.09806 3.2977 6.4583 3.2977H16.6417C16.82 3.29771 16.9967 3.26097 17.1615 3.18958C17.3263 3.11819 17.476 3.01355 17.6021 2.88164C17.7283 2.74972 17.8283 2.59311 17.8966 2.42075C17.9649 2.24839 18 2.06366 18 1.8771C18 1.69053 17.9649 1.50579 17.8966 1.33342C17.8284 1.16105 17.7283 1.00443 17.6022 0.87251C17.476 0.740587 17.3263 0.635941 17.1615 0.564548C16.9967 0.493155 16.82 0.456414 16.6417 0.456421H6.4583Z" fill="url(#paint3_linear_50_189)"/>
<path d="M6.4583 7.05646C6.09806 7.05646 5.75257 7.20613 5.49784 7.47255C5.24311 7.73896 5.10001 8.1003 5.10001 8.47707C5.10001 8.85383 5.24311 9.21517 5.49784 9.48159C5.75257 9.748 6.09806 9.89767 6.4583 9.89768H16.6417C16.82 9.89768 16.9967 9.86094 17.1615 9.78955C17.3263 9.71816 17.476 9.61352 17.6021 9.48161C17.7283 9.34969 17.8283 9.19308 17.8966 9.02072C17.9649 8.84836 18 8.66363 18 8.47707C18 8.2905 17.9649 8.10577 17.8966 7.93341C17.8283 7.76105 17.7283 7.60444 17.6021 7.47252C17.476 7.34061 17.3263 7.23597 17.1615 7.16458C16.9967 7.09319 16.82 7.05645 16.6417 7.05646H6.4583Z" fill="url(#paint4_linear_50_189)"/>
<path d="M6.4583 13.6565C6.09806 13.6565 5.75257 13.8061 5.49784 14.0726C5.24311 14.339 5.10001 14.7003 5.10001 15.0771C5.10001 15.4538 5.24311 15.8152 5.49784 16.0816C5.75257 16.348 6.09806 16.4977 6.4583 16.4977H16.6417C16.82 16.4977 16.9967 16.4609 17.1615 16.3896C17.3263 16.3182 17.476 16.2135 17.6021 16.0816C17.7283 15.9497 17.8283 15.7931 17.8966 15.6207C17.9649 15.4484 18 15.2636 18 15.0771C18 14.8905 17.9649 14.7058 17.8966 14.5334C17.8283 14.3611 17.7283 14.2044 17.6021 14.0725C17.476 13.9406 17.3263 13.836 17.1615 13.7646C16.9967 13.6932 16.82 13.6565 16.6417 13.6565H6.4583Z" fill="url(#paint5_linear_50_189)"/>
<defs>
<linearGradient id="paint0_linear_50_189" x1="1.87624" y1="13.2" x2="1.87624" y2="16.9542" gradientUnits="userSpaceOnUse">
<stop stop-color="#EE0979" stop-opacity="0.97"/>
<stop offset="1" stop-color="#FF6A00"/>
</linearGradient>
<linearGradient id="paint1_linear_50_189" x1="1.87624" y1="6.60001" x2="1.87624" y2="10.3541" gradientUnits="userSpaceOnUse">
<stop stop-color="#EE0979" stop-opacity="0.97"/>
<stop offset="1" stop-color="#FF6A00"/>
</linearGradient>
<linearGradient id="paint2_linear_50_189" x1="1.87624" y1="0" x2="1.87624" y2="3.75412" gradientUnits="userSpaceOnUse">
<stop stop-color="#EE0979" stop-opacity="0.97"/>
<stop offset="1" stop-color="#FF6A00"/>
</linearGradient>
<linearGradient id="paint3_linear_50_189" x1="11.55" y1="0.456421" x2="11.55" y2="3.2977" gradientUnits="userSpaceOnUse">
<stop stop-color="#EE0979" stop-opacity="0.97"/>
<stop offset="1" stop-color="#FF6A00"/>
</linearGradient>
<linearGradient id="paint4_linear_50_189" x1="11.55" y1="7.05646" x2="11.55" y2="9.89768" gradientUnits="userSpaceOnUse">
<stop stop-color="#EE0979" stop-opacity="0.97"/>
<stop offset="1" stop-color="#FF6A00"/>
</linearGradient>
<linearGradient id="paint5_linear_50_189" x1="11.55" y1="13.6565" x2="11.55" y2="16.4977" gradientUnits="userSpaceOnUse">
<stop stop-color="#EE0979" stop-opacity="0.97"/>
<stop offset="1" stop-color="#FF6A00"/>
</linearGradient>
</defs>
</svg>
