<svg width="323" height="79" viewBox="0 0 323 79" fill="none" xmlns="http://www.w3.org/2000/svg">
<path d="M31.3633 68.3853H10.1709C8.83941 68.3853 7.80383 67.3127 7.80383 66.0183C7.80383 64.6868 8.8764 63.6512 10.1709 63.6512H31.3633C35.9124 63.6512 39.574 59.9527 39.574 55.4405C39.574 50.8914 35.8755 47.2299 31.3633 47.2299L20.7856 47.3408C13.6105 47.3408 7.76685 41.5342 7.76685 34.3591C7.76685 27.184 13.5735 21.3773 20.7486 21.3773L29.0702 21.3404C30.2537 9.35721 40.3506 0 52.5927 0H63.2074C70.3825 0 76.1891 5.84363 76.1891 12.9817C76.1891 20.1199 70.3455 25.9635 63.2074 25.9635L33.9153 26.0375C35.1358 35.2837 43.0506 42.4218 52.5927 42.4218H73.8221C75.1535 42.4218 76.1891 43.4944 76.1891 44.7889C76.1891 46.1203 75.1166 47.1559 73.8221 47.1559H52.5927C40.4246 47.1559 30.3647 37.8727 29.1442 26.0375L20.7856 26.0744C16.2364 26.0744 12.5379 29.7729 12.5379 34.2851C12.5379 38.7973 16.2364 42.4958 20.7486 42.4958L31.3263 42.3848C38.5014 42.3848 44.345 48.2285 44.345 55.3666C44.382 62.5787 38.5384 68.3853 31.3633 68.3853ZM52.5927 4.77107C42.9766 4.77107 35.0618 11.9831 33.9153 21.3034L63.2074 21.2294C67.7565 21.2294 71.455 17.5309 71.455 13.0187C71.455 8.50655 67.7565 4.80805 63.2444 4.80805H52.5927V4.77107Z" fill="black"/>
<path d="M72.6756 44.7889C69.6798 47.7846 68.2743 53.6653 68.1634 57.7706C72.2687 52.2598 77.5576 47.4888 83.993 44.7889C77.5576 42.1999 72.4906 37.133 68.1634 31.8071C68.4963 36.2083 69.5688 41.5342 72.6756 44.7889Z" fill="black"/>
<path d="M11.3174 66.0183C14.3132 69.014 15.7186 74.8947 15.8296 79C11.7612 73.4892 6.43539 68.6812 0 66.0183C6.43539 63.4293 11.5023 58.3624 15.8296 53.0365C15.4967 57.4007 14.4242 62.7266 11.3174 66.0183Z" fill="black"/>
<path d="M116.503 64.6868C113.729 64.6868 111.251 64.206 108.995 63.2444C106.739 62.2828 104.816 60.9513 103.188 59.287C101.598 57.6227 100.34 55.6625 99.4528 53.4434C98.5652 51.2243 98.1213 48.8942 98.1213 46.3792C98.1213 43.9012 98.5652 41.5342 99.4528 39.3151C100.34 37.096 101.561 35.0988 103.188 33.4345C104.779 31.7332 106.739 30.4017 108.995 29.4401C111.251 28.4785 113.766 27.9977 116.577 27.9977C119.314 27.9977 121.829 28.4785 124.048 29.4771C126.267 30.4757 128.19 31.8071 129.781 33.4345C131.371 35.0988 132.554 36.985 133.405 39.2041C134.256 41.3862 134.663 43.6793 134.663 46.0833C134.663 46.6381 134.626 47.1189 134.589 47.5997C134.552 48.0805 134.515 48.4874 134.441 48.7832H106.073C106.221 50.3736 106.591 51.779 107.183 53.0365C107.774 54.294 108.588 55.4036 109.55 56.3282C110.511 57.2528 111.621 57.9555 112.878 58.4733C114.136 58.9541 115.43 59.213 116.762 59.213C117.76 59.213 118.722 59.1021 119.721 58.8432C120.682 58.5843 121.57 58.2514 122.384 57.7706C123.197 57.2898 123.9 56.735 124.566 56.0323C125.194 55.3666 125.712 54.6269 126.045 53.8132L132.406 55.6255C131.186 58.2884 129.152 60.4705 126.341 62.1718C123.53 63.8731 120.238 64.6868 116.503 64.6868ZM127.266 43.6423C127.118 42.1629 126.748 40.7575 126.156 39.5C125.564 38.2425 124.751 37.17 123.826 36.2823C122.864 35.3947 121.755 34.7289 120.497 34.2111C119.24 33.7303 117.908 33.4714 116.503 33.4714C115.097 33.4714 113.766 33.7303 112.545 34.2111C111.288 34.692 110.215 35.3947 109.254 36.2823C108.292 37.17 107.553 38.2425 106.961 39.5C106.369 40.7575 105.999 42.1259 105.888 43.6423H127.266Z" fill="black"/>
<path d="M153.599 64.6868C150.751 64.6868 147.903 64.206 145.092 63.2814C142.281 62.3567 139.84 61.0253 137.806 59.324L140.802 54.5899C142.91 56.1433 145.018 57.2898 147.09 58.0665C149.161 58.8432 151.306 59.25 153.451 59.25C155.67 59.25 157.408 58.8062 158.703 57.9555C159.997 57.1049 160.626 55.8844 160.626 54.294C160.626 52.8146 159.886 51.7051 158.444 51.0393C157.001 50.3736 154.745 49.6339 151.676 48.8202C149.457 48.2285 147.57 47.6737 145.98 47.1189C144.39 46.5641 143.095 45.9354 142.134 45.2327C141.135 44.493 140.432 43.6793 139.951 42.7177C139.508 41.7561 139.286 40.6096 139.286 39.2781C139.286 37.4658 139.619 35.8755 140.321 34.47C141.024 33.0646 141.986 31.8811 143.243 30.9195C144.501 29.9579 145.943 29.2182 147.607 28.7004C149.272 28.2196 151.084 27.9607 153.044 27.9607C155.707 27.9607 158.185 28.3675 160.478 29.1812C162.771 29.9949 164.842 31.1784 166.655 32.6948L163.474 37.1699C160.182 34.544 156.669 33.2495 152.97 33.2495C151.084 33.2495 149.494 33.6564 148.199 34.4331C146.905 35.2097 146.276 36.4672 146.276 38.2055C146.276 38.9452 146.424 39.537 146.683 40.0178C146.942 40.4986 147.385 40.9424 148.014 41.3123C148.606 41.6821 149.42 42.015 150.381 42.3109C151.343 42.6067 152.563 42.9396 154.006 43.3095C156.41 43.9012 158.481 44.493 160.219 45.0847C161.957 45.6765 163.4 46.3792 164.509 47.1559C165.656 47.9326 166.47 48.8572 167.024 49.9298C167.579 51.0023 167.838 52.2598 167.838 53.7392C167.838 57.1419 166.544 59.8048 164.029 61.765C161.477 63.7252 158 64.6868 153.599 64.6868Z" fill="black"/>
<path d="M183.742 64.6868C182.04 64.6868 180.45 64.3909 178.971 63.8361C177.491 63.2814 176.234 62.5047 175.161 61.5061C174.089 60.5075 173.275 59.324 172.646 57.9925C172.054 56.6241 171.721 55.1816 171.721 53.5913C171.721 51.927 172.091 50.4106 172.794 49.0421C173.534 47.6737 174.532 46.5272 175.864 45.5286C177.195 44.53 178.786 43.7533 180.598 43.2355C182.41 42.6807 184.444 42.4218 186.663 42.4218C188.328 42.4218 189.992 42.5698 191.619 42.8656C193.247 43.1615 194.726 43.5684 196.021 44.0492V41.6081C196.021 38.9822 195.281 36.948 193.802 35.4686C192.322 33.9892 190.177 33.2495 187.366 33.2495C185.48 33.2495 183.594 33.5824 181.781 34.2851C179.969 34.9878 178.083 35.9864 176.123 37.3179L173.83 32.5838C178.379 29.514 183.15 27.9607 188.069 27.9607C192.951 27.9607 196.723 29.2182 199.46 31.6962C202.16 34.1742 203.529 37.7617 203.529 42.3848V55.1817C203.529 56.772 204.194 57.5857 205.489 57.6227V63.9841C204.749 64.132 204.157 64.206 203.64 64.243C203.122 64.28 202.604 64.3169 202.123 64.3169C200.681 64.3169 199.571 63.9471 198.758 63.2444C197.981 62.5047 197.463 61.5801 197.315 60.4705L197.13 58.2514C195.54 60.3226 193.58 61.9129 191.287 63.0225C188.92 64.132 186.405 64.6868 183.742 64.6868ZM185.776 59.213C187.588 59.213 189.289 58.8801 190.88 58.2144C192.47 57.5487 193.728 56.6611 194.652 55.4775C195.614 54.6639 196.058 53.8132 196.058 52.8886V48.2285C194.8 47.7477 193.432 47.3408 192.026 47.0819C190.621 46.823 189.215 46.6751 187.847 46.6751C185.184 46.6751 183.002 47.2669 181.301 48.4134C179.599 49.5599 178.749 51.0763 178.749 52.9995C178.749 54.7748 179.414 56.2542 180.709 57.4377C182.077 58.6213 183.742 59.213 185.776 59.213Z" fill="black"/>
<path d="M226.977 64.6868C224.573 64.6868 222.354 64.206 220.357 63.2444C218.323 62.2828 216.547 60.9513 215.068 59.287C213.589 57.6227 212.405 55.6624 211.591 53.4433C210.741 51.2242 210.334 48.8202 210.334 46.2313C210.334 43.7533 210.741 41.4232 211.517 39.2041C212.294 37.022 213.404 35.0988 214.846 33.3975C216.251 31.7331 217.953 30.4017 219.876 29.4401C221.799 28.4785 223.907 27.9977 226.2 27.9977C229.048 27.9977 231.563 28.7004 233.708 30.0688C235.891 31.4373 237.555 33.2125 238.775 35.3207V14.5721H246.209V55.2186C246.209 56.0693 246.357 56.698 246.653 57.0309C246.949 57.4007 247.467 57.5857 248.244 57.6227V63.9841C247.467 64.132 246.838 64.206 246.394 64.243C245.913 64.2799 245.507 64.3169 245.211 64.3169C243.731 64.3169 242.511 63.9471 241.549 63.1704C240.588 62.3937 240.07 61.3951 239.996 60.1746L239.848 57.5487C238.553 59.7678 236.741 61.5061 234.485 62.7636C232.229 64.058 229.751 64.6868 226.977 64.6868ZM228.826 58.3254C229.899 58.3254 231.008 58.1404 232.081 57.7706C233.154 57.4007 234.152 56.9199 235.077 56.2912C235.964 55.6624 236.741 54.9227 237.407 54.0721C238.073 53.2214 238.516 52.2968 238.812 51.2982V42.015C238.405 40.8684 237.814 39.8329 237.074 38.9082C236.334 37.9466 235.484 37.1329 234.522 36.4672C233.56 35.8015 232.562 35.2837 231.489 34.9139C230.417 34.544 229.344 34.3591 228.272 34.3591C226.792 34.3591 225.424 34.6919 224.166 35.3577C222.909 36.0234 221.836 36.948 220.949 38.0576C220.061 39.2041 219.321 40.4616 218.803 41.904C218.286 43.3464 218.027 44.8258 218.027 46.3792C218.027 48.0065 218.323 49.5229 218.877 51.0023C219.432 52.4447 220.209 53.7022 221.207 54.8118C222.206 55.8844 223.353 56.772 224.647 57.4007C225.942 58.0295 227.31 58.3254 228.826 58.3254Z" fill="black"/>
<path d="M287.485 64.0211H280.051V44.1601C280.051 40.9054 279.459 38.5014 278.312 36.948C277.166 35.3947 275.501 34.618 273.319 34.618C272.284 34.618 271.248 34.8029 270.213 35.2097C269.177 35.6166 268.178 36.2083 267.254 36.948C266.329 37.6877 265.516 38.5754 264.776 39.574C264.036 40.5726 263.518 41.7191 263.148 42.9396V64.0211H255.714V14.5721H263.148V35.6905C264.517 33.2495 266.329 31.3633 268.659 29.9948C270.989 28.6264 273.541 27.9607 276.278 27.9607C278.497 27.9607 280.31 28.3675 281.715 29.1442C283.12 29.9209 284.267 30.9934 285.118 32.2879C285.968 33.5824 286.56 35.1358 286.93 36.8741C287.263 38.6124 287.448 40.4616 287.448 42.3848V64.0211H287.485Z" fill="black"/>
<path d="M296.139 22.7828V14.5721H303.573V22.7828H296.139ZM296.139 64.0211V28.5894H303.573V64.0211H296.139Z" fill="black"/>
<path d="M316.296 49.2271C315.63 49.2271 314.927 49.1161 314.262 48.8572C313.596 48.5983 312.967 48.2655 312.449 47.7847C311.895 47.3039 311.488 46.7491 311.155 46.0464C310.822 45.3806 310.674 44.6039 310.674 43.7163C310.674 42.6807 310.896 41.7931 311.377 41.0534C311.821 40.3137 312.449 39.7589 313.152 39.3891L314.114 40.7945C313.781 40.9424 313.485 41.1643 313.263 41.3862C313.041 41.6082 312.856 41.8671 312.708 42.1259C312.56 42.3848 312.486 42.6807 312.412 42.9396C312.338 43.2355 312.338 43.4944 312.338 43.7533C312.338 44.3451 312.449 44.8628 312.708 45.3067C312.93 45.7505 313.263 46.1203 313.67 46.4162C314.077 46.7121 314.521 46.934 315.001 47.1189C315.482 47.2669 316 47.3408 316.481 47.3408C317.036 47.3408 317.553 47.2669 318.071 47.0819C318.589 46.897 319.033 46.6381 319.403 46.3053C319.772 45.9724 320.105 45.6025 320.327 45.1587C320.549 44.7149 320.66 44.2341 320.66 43.6793C320.66 43.4204 320.623 43.1245 320.549 42.8287C320.475 42.5328 320.364 42.2369 320.216 41.978C320.068 41.7191 319.883 41.4602 319.625 41.2383C319.403 41.0164 319.107 40.8315 318.774 40.6835L319.625 39.2041C320.068 39.3891 320.438 39.648 320.734 39.9808C321.067 40.3137 321.326 40.6835 321.548 41.0904C321.77 41.4972 321.955 41.941 322.066 42.4218C322.176 42.9026 322.25 43.3465 322.25 43.7903C322.25 44.6039 322.066 45.3067 321.733 45.9724C321.4 46.6381 320.956 47.1929 320.401 47.6737C319.846 48.1545 319.218 48.5244 318.515 48.7832C317.738 49.0791 317.036 49.2271 316.296 49.2271Z" fill="black"/>
<path d="M322.14 32.9537C322.14 33.7673 321.992 34.507 321.659 35.1728C321.326 35.8385 320.919 36.4303 320.364 36.8741C319.809 37.3549 319.218 37.7247 318.515 37.9836C317.812 38.2425 317.11 38.3905 316.407 38.3905C315.667 38.3905 314.927 38.2425 314.225 37.9836C313.522 37.7247 312.93 37.3179 312.375 36.8371C311.858 36.3563 311.414 35.7645 311.118 35.0988C310.822 34.4331 310.637 33.6934 310.637 32.9167C310.637 32.103 310.822 31.3633 311.155 30.6976C311.488 30.0318 311.932 29.4771 312.486 28.9963C313.041 28.5155 313.633 28.1456 314.336 27.8867C315.038 27.6278 315.741 27.4799 316.444 27.4799C317.184 27.4799 317.923 27.6278 318.626 27.8867C319.329 28.1456 319.92 28.5524 320.438 29.0333C320.956 29.5141 321.4 30.1058 321.696 30.7715C321.992 31.4373 322.14 32.177 322.14 32.9537ZM316.37 36.5782C316.888 36.5782 317.405 36.5042 317.923 36.3193C318.441 36.1344 318.885 35.9125 319.255 35.5796C319.625 35.2467 319.957 34.8769 320.179 34.4331C320.401 33.9892 320.512 33.4715 320.512 32.9167C320.512 32.3249 320.401 31.8441 320.142 31.4003C319.92 30.9565 319.588 30.5866 319.181 30.2907C318.774 29.9949 318.33 29.736 317.849 29.588C317.368 29.4401 316.851 29.3661 316.333 29.3661C315.778 29.3661 315.26 29.4401 314.78 29.625C314.299 29.8099 313.855 30.0318 313.485 30.3647C313.115 30.6976 312.819 31.0674 312.56 31.5112C312.338 31.9551 312.228 32.4359 312.228 32.9906C312.228 33.5824 312.339 34.0632 312.597 34.544C312.819 34.9878 313.152 35.3577 313.522 35.6906C313.892 35.9864 314.336 36.2453 314.853 36.3933C315.371 36.4672 315.852 36.5782 316.37 36.5782Z" fill="black"/>
<path d="M322.066 16.0885H313.892L320.068 19.4541V20.4527L313.892 23.8554H322.066V25.6306H310.711V23.7074L317.627 19.9719L310.674 16.1995V14.2762H322.029V16.0885H322.066Z" fill="black"/>
<path d="M310.635 52.858V64.2864H322.064V52.858H310.635Z" fill="black"/>
</svg>
