<svg width="351" height="86" viewBox="0 0 351 86" fill="none" xmlns="http://www.w3.org/2000/svg">
<path d="M34.1423 74.4448H11.0721C9.62265 74.4448 8.49531 73.2772 8.49531 71.868C8.49531 70.4185 9.66291 69.2912 11.0721 69.2912H34.1423C39.0946 69.2912 43.0805 65.265 43.0805 60.353C43.0805 55.4007 39.0543 51.4148 34.1423 51.4148L22.6273 51.5356C14.8165 51.5356 8.45505 45.2144 8.45505 37.4036C8.45505 29.5927 14.7762 23.2715 22.5871 23.2715L31.6461 23.2313C32.9344 10.1863 43.926 0 57.2528 0H68.808C76.6189 0 82.9401 6.36142 82.9401 14.132C82.9401 21.9026 76.5786 28.264 68.808 28.264L36.9204 28.3446C38.2491 38.4101 46.8652 46.1807 57.2528 46.1807H80.3633C81.8127 46.1807 82.9401 47.3483 82.9401 48.7575C82.9401 50.2069 81.7725 51.3343 80.3633 51.3343H57.2528C44.0065 51.3343 33.0552 41.2285 31.7266 28.3446L22.6273 28.3848C17.6751 28.3848 13.6489 32.411 13.6489 37.323C13.6489 42.235 17.6751 46.2612 22.5871 46.2612L34.1021 46.1404C41.9129 46.1404 48.2743 52.5019 48.2743 60.2725C48.3146 68.1236 41.9532 74.4448 34.1423 74.4448ZM57.2528 5.19382C46.7846 5.19382 38.1685 13.0449 36.9204 23.191L68.808 23.1105C73.7603 23.1105 77.7865 19.0843 77.7865 14.1723C77.7865 9.2603 73.7603 5.23408 68.8483 5.23408H57.2528V5.19382Z" fill="white"/>
<path d="M79.1152 48.7575C75.8539 52.0187 74.324 58.4204 74.2032 62.8895C78.6723 56.8905 84.4298 51.6966 91.4354 48.7575C84.4298 45.9392 78.9139 40.4232 74.2032 34.6255C74.5655 39.4167 75.7331 45.2144 79.1152 48.7575Z" fill="white"/>
<path d="M12.3202 71.8684C15.5815 75.1296 17.1114 81.5313 17.2322 86.0004C12.8034 80.0013 7.00562 74.7672 0 71.8684C7.00562 69.05 12.5215 63.5341 17.2322 57.7363C16.8699 62.4873 15.7022 68.285 12.3202 71.8684Z" fill="white"/>
<path d="M126.826 70.4186C123.806 70.4186 121.109 69.8952 118.653 68.8484C116.197 67.8016 114.103 66.3521 112.331 64.5403C110.6 62.7285 109.231 60.5946 108.265 58.1789C107.299 55.7632 106.816 53.2266 106.816 50.4888C106.816 47.7913 107.299 45.2145 108.265 42.7987C109.231 40.383 110.56 38.2089 112.331 36.3971C114.063 34.545 116.197 33.0956 118.653 32.0487C121.109 31.0019 123.846 30.4785 126.906 30.4785C129.886 30.4785 132.624 31.0019 135.039 32.089C137.455 33.1761 139.549 34.6255 141.28 36.3971C143.011 38.2089 144.3 40.2622 145.226 42.678C146.152 45.0534 146.595 47.5497 146.595 50.1667C146.595 50.7707 146.554 51.2941 146.514 51.8175C146.474 52.3409 146.434 52.7838 146.353 53.1059H115.472C115.633 54.8371 116.036 56.3671 116.68 57.736C117.324 59.1049 118.21 60.3128 119.257 61.3193C120.303 62.3259 121.511 63.0909 122.88 63.6546C124.249 64.178 125.658 64.4598 127.108 64.4598C128.195 64.4598 129.242 64.339 130.329 64.0572C131.375 63.7753 132.342 63.413 133.228 62.8896C134.113 62.3662 134.878 61.7622 135.603 60.9972C136.287 60.2725 136.851 59.4673 137.213 58.5815L144.139 60.5544C142.81 63.4532 140.596 65.8287 137.536 67.6808C134.476 69.5328 130.892 70.4186 126.826 70.4186ZM138.542 47.5094C138.381 45.8989 137.978 44.369 137.334 43.0001C136.69 41.6311 135.804 40.4635 134.798 39.4972C133.751 38.531 132.543 37.8062 131.174 37.2426C129.805 36.7192 128.356 36.4373 126.826 36.4373C125.296 36.4373 123.846 36.7192 122.518 37.2426C121.149 37.766 119.981 38.531 118.934 39.4972C117.888 40.4635 117.082 41.6311 116.438 43.0001C115.794 44.369 115.391 45.8587 115.271 47.5094H138.542Z" fill="white"/>
<path d="M167.209 70.4188C164.109 70.4188 161.009 69.8954 157.949 68.8889C154.889 67.8823 152.231 66.4329 150.017 64.5808L153.278 59.4272C155.573 61.1183 157.868 62.3664 160.123 63.2119C162.377 64.0574 164.713 64.5003 167.048 64.5003C169.464 64.5003 171.356 64.0171 172.765 63.0911C174.174 62.1651 174.859 60.8364 174.859 59.1051C174.859 57.4947 174.053 56.2868 172.483 55.5621C170.913 54.8374 168.457 54.0321 165.115 53.1463C162.7 52.5021 160.646 51.8982 158.915 51.2943C157.184 50.6903 155.774 50.0059 154.728 49.2409C153.641 48.4357 152.876 47.5499 152.352 46.5031C151.869 45.4563 151.627 44.2081 151.627 42.7587C151.627 40.7859 151.99 39.0546 152.755 37.5246C153.52 35.9947 154.567 34.7063 155.936 33.6595C157.304 32.6126 158.875 31.8074 160.686 31.2437C162.498 30.7203 164.471 30.4385 166.605 30.4385C169.504 30.4385 172.201 30.8814 174.698 31.7671C177.194 32.6529 179.449 33.9413 181.421 35.592L177.959 40.4638C174.376 37.6051 170.551 36.196 166.524 36.196C164.471 36.196 162.74 36.6389 161.331 37.4844C159.921 38.3299 159.237 39.6988 159.237 41.5911C159.237 42.3963 159.398 43.0405 159.68 43.5639C159.962 44.0874 160.445 44.5705 161.129 44.9731C161.774 45.3757 162.659 45.7381 163.706 46.0602C164.753 46.3823 166.082 46.7447 167.652 47.1473C170.269 47.7915 172.524 48.4357 174.416 49.0799C176.308 49.7241 177.878 50.489 179.086 51.3345C180.334 52.18 181.22 53.1866 181.824 54.3542C182.428 55.5218 182.71 56.8907 182.71 58.5012C182.71 62.2053 181.301 65.1042 178.563 67.2381C175.785 69.372 172 70.4188 167.209 70.4188Z" fill="white"/>
<path d="M200.023 70.4188C198.17 70.4188 196.439 70.0967 194.829 69.4928C193.218 68.8889 191.849 68.0433 190.682 66.9563C189.514 65.8692 188.628 64.5808 187.944 63.1314C187.3 61.6417 186.937 60.0714 186.937 58.3402C186.937 56.5284 187.34 54.8776 188.105 53.3879C188.91 51.8982 189.997 50.6501 191.447 49.563C192.896 48.4759 194.627 47.6304 196.6 47.0668C198.573 46.4628 200.788 46.181 203.203 46.181C205.015 46.181 206.827 46.342 208.598 46.6641C210.37 46.9862 211.98 47.4291 213.39 47.9525V45.2952C213.39 42.4366 212.584 40.2222 210.974 38.6117C209.363 37.0012 207.028 36.196 203.968 36.196C201.915 36.196 199.861 36.5583 197.889 37.3233C195.916 38.0883 193.862 39.1754 191.729 40.6248L189.232 35.4712C194.185 32.1295 199.378 30.4385 204.733 30.4385C210.048 30.4385 214.155 31.8074 217.134 34.505C220.073 37.2025 221.563 41.108 221.563 46.1407V60.0714C221.563 61.8027 222.288 62.6885 223.697 62.7287V69.6538C222.891 69.8149 222.247 69.8954 221.684 69.9357C221.12 69.9759 220.556 70.0162 220.033 70.0162C218.463 70.0162 217.255 69.6136 216.369 68.8486C215.523 68.0433 214.96 67.0368 214.799 65.8289L214.597 63.4132C212.866 65.6679 210.732 67.3991 208.236 68.607C205.659 69.8149 202.921 70.4188 200.023 70.4188ZM202.237 64.46C204.21 64.46 206.062 64.0976 207.793 63.3729C209.524 62.6482 210.893 61.6819 211.9 60.3935C212.947 59.5078 213.43 58.5817 213.43 57.5752V52.5021C212.061 51.9787 210.571 51.5359 209.041 51.254C207.511 50.9722 205.981 50.8111 204.492 50.8111C201.593 50.8111 199.217 51.4553 197.365 52.7035C195.513 53.9516 194.587 55.6023 194.587 57.696C194.587 59.6286 195.312 61.239 196.721 62.5274C198.211 63.8158 200.023 64.46 202.237 64.46Z" fill="white"/>
<path d="M247.089 70.419C244.472 70.419 242.056 69.8956 239.882 68.8488C237.668 67.802 235.735 66.3525 234.125 64.5407C232.514 62.7289 231.226 60.595 230.34 58.1793C229.414 55.7636 228.971 53.1465 228.971 50.3282C228.971 47.6306 229.414 45.0941 230.259 42.6784C231.105 40.3029 232.313 38.2093 233.883 36.3572C235.413 34.5454 237.265 33.096 239.359 32.0492C241.452 31.0023 243.747 30.4789 246.244 30.4789C249.344 30.4789 252.082 31.2439 254.417 32.7336C256.792 34.2233 258.604 36.1559 259.933 38.4508V15.8638H268.025V60.1119C268.025 61.0379 268.186 61.7224 268.509 62.0847C268.831 62.4874 269.394 62.6887 270.24 62.7289V69.654C269.394 69.8151 268.71 69.8956 268.227 69.9359C267.703 69.9761 267.26 70.0164 266.938 70.0164C265.328 70.0164 263.999 69.6138 262.952 68.7683C261.906 67.9228 261.342 66.8357 261.261 65.507L261.1 62.6484C259.691 65.0641 257.718 66.9565 255.262 68.3254C252.806 69.7346 250.109 70.419 247.089 70.419ZM249.102 63.4939C250.27 63.4939 251.478 63.2926 252.645 62.89C253.813 62.4874 254.9 61.964 255.906 61.2795C256.873 60.595 257.718 59.7898 258.443 58.8638C259.168 57.9377 259.651 56.9312 259.973 55.8441V45.7383C259.53 44.4902 258.886 43.3628 258.081 42.3563C257.275 41.3095 256.349 40.4237 255.303 39.699C254.256 38.9743 253.169 38.4106 252.001 38.008C250.833 37.6053 249.666 37.404 248.498 37.404C246.888 37.404 245.398 37.7664 244.029 38.4911C242.66 39.2158 241.493 40.2224 240.526 41.4302C239.56 42.6784 238.755 44.0473 238.191 45.6175C237.627 47.1877 237.346 48.7982 237.346 50.4892C237.346 52.2608 237.668 53.9115 238.272 55.522C238.876 57.0922 239.721 58.4611 240.808 59.669C241.895 60.8366 243.143 61.8029 244.553 62.4874C245.962 63.1718 247.451 63.4939 249.102 63.4939Z" fill="white"/>
<path d="M312.958 69.6943H304.865V48.0735C304.865 44.5304 304.221 41.9134 302.973 40.2224C301.725 38.5314 299.913 37.6859 297.537 37.6859C296.41 37.6859 295.283 37.8872 294.155 38.3301C293.028 38.7729 291.941 39.4171 290.934 40.2224C289.928 41.0276 289.042 41.9939 288.237 43.081C287.432 44.1681 286.868 45.4162 286.465 46.7449V69.6943H278.373V15.8638H286.465V38.8535C287.955 36.1962 289.928 34.1428 292.464 32.6531C295.001 31.1634 297.779 30.4387 300.758 30.4387C303.174 30.4387 305.147 30.8816 306.677 31.7271C308.207 32.5726 309.455 33.7402 310.381 35.1494C311.307 36.5585 311.951 38.2495 312.354 40.1419C312.716 42.0342 312.918 44.0473 312.918 46.1409V69.6943H312.958Z" fill="white"/>
<path d="M322.379 24.802V15.8638H330.472V24.802H322.379ZM322.379 69.6943V31.1231H330.472V69.6943H322.379Z" fill="white"/>
<path d="M344.322 53.5893C343.597 53.5893 342.832 53.4685 342.108 53.1867C341.383 52.9048 340.698 52.5425 340.135 52.019C339.531 51.4956 339.088 50.8917 338.726 50.1267C338.363 49.402 338.202 48.5565 338.202 47.5902C338.202 46.4629 338.444 45.4966 338.967 44.6913C339.45 43.8861 340.135 43.2822 340.9 42.8795L341.947 44.4095C341.584 44.5705 341.262 44.8121 341.021 45.0537C340.779 45.2953 340.578 45.5771 340.417 45.8589C340.256 46.1408 340.175 46.4629 340.095 46.7447C340.014 47.0668 340.014 47.3486 340.014 47.6305C340.014 48.2747 340.135 48.8383 340.417 49.3215C340.658 49.8046 341.021 50.2072 341.463 50.5293C341.906 50.8514 342.389 51.093 342.913 51.2943C343.436 51.4554 344 51.5359 344.523 51.5359C345.127 51.5359 345.691 51.4554 346.255 51.2541C346.818 51.0528 347.301 50.7709 347.704 50.4086C348.107 50.0462 348.469 49.6436 348.711 49.1604C348.952 48.6773 349.073 48.1539 349.073 47.5499C349.073 47.2681 349.033 46.946 348.952 46.6239C348.872 46.3018 348.751 45.9797 348.59 45.6979C348.429 45.4161 348.227 45.1342 347.946 44.8926C347.704 44.6511 347.382 44.4498 347.02 44.2887L347.946 42.6782C348.429 42.8795 348.831 43.1614 349.154 43.5237C349.516 43.8861 349.798 44.2887 350.039 44.7316C350.281 45.1745 350.482 45.6576 350.603 46.181C350.724 46.7044 350.804 47.1876 350.804 47.6707C350.804 48.5565 350.603 49.3215 350.241 50.0462C349.878 50.7709 349.395 51.3748 348.791 51.8983C348.187 52.4217 347.503 52.8243 346.738 53.1061C345.892 53.4282 345.127 53.5893 344.322 53.5893Z" fill="white"/>
<path d="M350.684 35.8734C350.684 36.7591 350.522 37.5644 350.16 38.2891C349.798 39.0138 349.355 39.658 348.751 40.1411C348.147 40.6645 347.503 41.0672 346.738 41.349C345.973 41.6308 345.208 41.7919 344.443 41.7919C343.638 41.7919 342.832 41.6308 342.067 41.349C341.302 41.0672 340.658 40.6243 340.054 40.1009C339.491 39.5775 339.007 38.9333 338.685 38.2086C338.363 37.4838 338.162 36.6786 338.162 35.8331C338.162 34.9473 338.363 34.1421 338.726 33.4174C339.088 32.6926 339.571 32.0887 340.175 31.5653C340.779 31.0419 341.423 30.6393 342.188 30.3574C342.953 30.0756 343.718 29.9146 344.483 29.9146C345.288 29.9146 346.094 30.0756 346.859 30.3574C347.624 30.6393 348.268 31.0822 348.831 31.6056C349.395 32.129 349.878 32.7732 350.2 33.4979C350.522 34.2226 350.684 35.0278 350.684 35.8734ZM344.403 39.819C344.966 39.819 345.53 39.7385 346.094 39.5372C346.657 39.3359 347.14 39.0943 347.543 38.732C347.946 38.3696 348.308 37.967 348.55 37.4838C348.791 37.0007 348.912 36.437 348.912 35.8331C348.912 35.1889 348.791 34.6655 348.509 34.1823C348.268 33.6992 347.905 33.2966 347.463 32.9745C347.02 32.6524 346.537 32.3705 346.013 32.2095C345.49 32.0484 344.926 31.9679 344.362 31.9679C343.758 31.9679 343.195 32.0484 342.671 32.2498C342.148 32.4511 341.665 32.6926 341.262 33.055C340.86 33.4174 340.537 33.82 340.256 34.3031C340.014 34.7863 339.893 35.3097 339.893 35.9136C339.893 36.5578 340.014 37.0812 340.296 37.6046C340.537 38.0878 340.9 38.4904 341.302 38.8528C341.705 39.1748 342.188 39.4567 342.752 39.6177C343.316 39.6983 343.839 39.819 344.403 39.819Z" fill="white"/>
<path d="M350.603 17.5139H341.705L348.429 21.1777V22.2648L341.705 25.9689H350.603V27.9015H338.242V25.8079L345.771 21.7414L338.202 17.6346V15.541H350.563V17.5139H350.603Z" fill="white"/>
<path d="M338.16 57.5414V69.9824H350.601V57.5414H338.16Z" fill="white"/>
</svg>
